<svg xmlns="http://www.w3.org/2000/svg" width="1200" height="520" viewBox="0 0 1200 520" role="img" aria-labelledby="title desc">
  <title id="title">World Cup Predictor Training Status</title>
  <desc id="desc">Chart showing one logged training cycle and current model candidate validation log loss comparison.</desc>
  <rect width="1200" height="520" fill="#ffffff"/>
  <text x="600" y="42" text-anchor="middle" font-family="Arial, sans-serif" font-size="24" font-weight="700" fill="#1f2933">World Cup Predictor Training Status</text>

  <text x="300" y="88" text-anchor="middle" font-family="Arial, sans-serif" font-size="18" font-weight="700" fill="#1f2933">Training Cycle Progress</text>
  <line x1="90" y1="405" x2="530" y2="405" stroke="#4b5563" stroke-width="1.5"/>
  <line x1="90" y1="110" x2="90" y2="405" stroke="#4b5563" stroke-width="1.5"/>
  <line x1="90" y1="169" x2="530" y2="169" stroke="#d6dce2" stroke-width="1"/>
  <line x1="90" y1="228" x2="530" y2="228" stroke="#d6dce2" stroke-width="1"/>
  <line x1="90" y1="287" x2="530" y2="287" stroke="#d6dce2" stroke-width="1"/>
  <line x1="90" y1="346" x2="530" y2="346" stroke="#d6dce2" stroke-width="1"/>
  <text x="52" y="174" text-anchor="end" font-family="Arial, sans-serif" font-size="12" fill="#52616f">0.900</text>
  <text x="52" y="233" text-anchor="end" font-family="Arial, sans-serif" font-size="12" fill="#52616f">0.895</text>
  <text x="52" y="292" text-anchor="end" font-family="Arial, sans-serif" font-size="12" fill="#52616f">0.890</text>
  <text x="52" y="351" text-anchor="end" font-family="Arial, sans-serif" font-size="12" fill="#52616f">0.885</text>
  <text x="310" y="454" text-anchor="middle" font-family="Arial, sans-serif" font-size="13" fill="#374151">Logged training cycle</text>
  <text x="22" y="258" text-anchor="middle" transform="rotate(-90 22 258)" font-family="Arial, sans-serif" font-size="13" fill="#374151">Validation log loss, lower is better</text>
  <circle cx="310" cy="354" r="6" fill="#2563eb"/>
  <line x1="310" y1="354" x2="310" y2="405" stroke="#2563eb" stroke-width="2" stroke-dasharray="4 4"/>
  <text x="310" y="332" text-anchor="middle" font-family="Arial, sans-serif" font-size="12" font-weight="700" fill="#1f2933">autoresearch-inspired</text>
  <text x="310" y="349" text-anchor="middle" font-family="Arial, sans-serif" font-size="12" fill="#1f2933">0.884289</text>
  <text x="310" y="425" text-anchor="middle" font-family="Arial, sans-serif" font-size="12" fill="#52616f">1</text>
  <rect x="120" y="474" width="380" height="28" rx="4" fill="#eef2f6"/>
  <text x="310" y="493" text-anchor="middle" font-family="Arial, sans-serif" font-size="12" fill="#374151">Only one logged cycle exists, so no improvement trend can be inferred yet.</text>

  <text x="900" y="88" text-anchor="middle" font-family="Arial, sans-serif" font-size="18" font-weight="700" fill="#1f2933">Current Candidate Comparison</text>
  <line x1="670" y1="405" x2="1130" y2="405" stroke="#4b5563" stroke-width="1.5"/>
  <line x1="670" y1="110" x2="670" y2="405" stroke="#4b5563" stroke-width="1.5"/>
  <line x1="670" y1="160" x2="1130" y2="160" stroke="#d6dce2" stroke-width="1"/>
  <line x1="670" y1="220" x2="1130" y2="220" stroke="#d6dce2" stroke-width="1"/>
  <line x1="670" y1="280" x2="1130" y2="280" stroke="#d6dce2" stroke-width="1"/>
  <line x1="670" y1="340" x2="1130" y2="340" stroke="#d6dce2" stroke-width="1"/>
  <text x="642" y="164" text-anchor="end" font-family="Arial, sans-serif" font-size="12" fill="#52616f">0.905</text>
  <text x="642" y="224" text-anchor="end" font-family="Arial, sans-serif" font-size="12" fill="#52616f">0.900</text>
  <text x="642" y="284" text-anchor="end" font-family="Arial, sans-serif" font-size="12" fill="#52616f">0.895</text>
  <text x="642" y="344" text-anchor="end" font-family="Arial, sans-serif" font-size="12" fill="#52616f">0.890</text>
  <text x="632" y="258" text-anchor="middle" transform="rotate(-90 632 258)" font-family="Arial, sans-serif" font-size="13" fill="#374151">Validation log loss</text>

  <rect x="705" y="171" width="72" height="234" fill="#8aa1b4"/>
  <text x="741" y="158" text-anchor="middle" font-family="Arial, sans-serif" font-size="12" fill="#1f2933">0.9041</text>
  <text x="741" y="425" text-anchor="middle" font-family="Arial, sans-serif" font-size="11" fill="#374151">logistic</text>
  <text x="741" y="440" text-anchor="middle" font-family="Arial, sans-serif" font-size="11" fill="#374151">regression</text>

  <rect x="817" y="330" width="72" height="75" fill="#8aa1b4"/>
  <text x="853" y="317" text-anchor="middle" font-family="Arial, sans-serif" font-size="12" fill="#1f2933">0.8909</text>
  <text x="853" y="425" text-anchor="middle" font-family="Arial, sans-serif" font-size="11" fill="#374151">calibrated</text>
  <text x="853" y="440" text-anchor="middle" font-family="Arial, sans-serif" font-size="11" fill="#374151">logistic</text>

  <rect x="929" y="405" width="72" height="0" fill="#16a34a"/>
  <circle cx="965" cy="405" r="5" fill="#16a34a"/>
  <text x="965" y="385" text-anchor="middle" font-family="Arial, sans-serif" font-size="12" font-weight="700" fill="#166534">0.8843</text>
  <text x="965" y="425" text-anchor="middle" font-family="Arial, sans-serif" font-size="11" fill="#374151">hist gradient</text>
  <text x="965" y="440" text-anchor="middle" font-family="Arial, sans-serif" font-size="11" fill="#374151">boosting</text>

  <rect x="1041" y="283" width="72" height="122" fill="#8aa1b4"/>
  <text x="1077" y="270" text-anchor="middle" font-family="Arial, sans-serif" font-size="12" fill="#1f2933">0.8948</text>
  <text x="1077" y="425" text-anchor="middle" font-family="Arial, sans-serif" font-size="11" fill="#374151">calibrated</text>
  <text x="1077" y="440" text-anchor="middle" font-family="Arial, sans-serif" font-size="11" fill="#374151">hist gradient</text>
  <rect x="850" y="474" width="180" height="22" rx="4" fill="#e9f8ef"/>
  <circle cx="867" cy="485" r="5" fill="#16a34a"/>
  <text x="943" y="489" text-anchor="middle" font-family="Arial, sans-serif" font-size="12" fill="#166534">Selected model</text>
</svg>
