<svg xmlns="http://www.w3.org/2000/svg" width="1200" height="640" viewBox="0 0 1200 640" role="img" aria-labelledby="title desc">
<title id="title">Training Log Loss Over Time</title>
<desc id="desc">Per-run validation log loss and cumulative best validation log loss for experiment and auto-research runs.</desc>
<rect width="1200" height="640" fill="#ffffff"/>
<text x="600.0" y="38" text-anchor="middle" font-family="Arial, sans-serif" font-size="24" font-weight="700" fill="#1f2933">Training Log Loss Over Time</text>
<text x="600.0" y="62" text-anchor="middle" font-family="Arial, sans-serif" font-size="13" fill="#52616f">68 saved training runs from results.tsv and artifacts/autoresearch.tsv</text>
<line x1="92" y1="528.0" x2="1158" y2="528.0" stroke="#d6dce2" stroke-width="1"/>
<text x="78" y="532.0" text-anchor="end" font-family="Arial, sans-serif" font-size="12" fill="#52616f">0.8708</text>
<line x1="92" y1="416.5" x2="1158" y2="416.5" stroke="#d6dce2" stroke-width="1"/>
<text x="78" y="420.5" text-anchor="end" font-family="Arial, sans-serif" font-size="12" fill="#52616f">0.9053</text>
<line x1="92" y1="305.0" x2="1158" y2="305.0" stroke="#d6dce2" stroke-width="1"/>
<text x="78" y="309.0" text-anchor="end" font-family="Arial, sans-serif" font-size="12" fill="#52616f">0.9397</text>
<line x1="92" y1="193.5" x2="1158" y2="193.5" stroke="#d6dce2" stroke-width="1"/>
<text x="78" y="197.5" text-anchor="end" font-family="Arial, sans-serif" font-size="12" fill="#52616f">0.9741</text>
<line x1="92" y1="82.0" x2="1158" y2="82.0" stroke="#d6dce2" stroke-width="1"/>
<text x="78" y="86.0" text-anchor="end" font-family="Arial, sans-serif" font-size="12" fill="#52616f">1.0085</text>
<line x1="92" y1="82" x2="92" y2="528" stroke="#4b5563" stroke-width="1.5"/>
<line x1="92" y1="528" x2="1158" y2="528" stroke="#4b5563" stroke-width="1.5"/>
<text x="600.0" y="598" text-anchor="middle" font-family="Arial, sans-serif" font-size="13" fill="#374151">Saved training run sequence</text>
<text x="28" y="305.0" text-anchor="middle" transform="rotate(-90 28 305.0)" font-family="Arial, sans-serif" font-size="13" fill="#374151">Validation log loss, lower is better</text>
<polyline points="92.0,484.4 107.9,481.3 123.8,484.8 139.7,484.8 155.6,484.8 171.6,482.7 187.5,483.8 203.4,484.1 219.3,481.3 235.2,483.2 251.1,483.9 267.0,483.2 282.9,480.6 298.8,481.9 314.7,480.6 330.7,480.9 346.6,483.8 362.5,482.3 378.4,483.5 394.3,484.1 410.2,481.3 426.1,483.2 442.0,483.9 457.9,483.2 473.9,480.6 489.8,481.9 505.7,480.6 521.6,480.9 537.5,483.8 553.4,482.3 569.3,483.5 585.2,484.1 601.1,481.3 617.0,483.2 633.0,483.9 648.9,483.2 664.8,480.6 680.7,481.9 696.6,480.6 712.5,480.9 728.4,483.8 744.3,482.3 760.2,483.5 776.1,484.1 792.1,481.3 808.0,483.2 823.9,483.9 839.8,483.2 855.7,480.6 871.6,481.9 887.5,480.6 903.4,480.9 919.3,483.8 935.3,482.3 951.2,483.5 967.1,484.1 983.0,481.3 998.9,483.2 1014.8,483.9 1030.7,483.2 1046.6,480.6 1062.5,481.9 1078.4,480.6 1094.4,480.9 1110.3,125.2 1126.2,130.4 1142.1,222.8 1158.0,224.8" fill="none" stroke="#8aa1b4" stroke-width="2" stroke-linejoin="round" stroke-linecap="round"/>
<polyline points="92.0,484.4 107.9,484.4 123.8,484.8 139.7,484.8 155.6,484.8 171.6,484.8 187.5,484.8 203.4,484.8 219.3,484.8 235.2,484.8 251.1,484.8 267.0,484.8 282.9,484.8 298.8,484.8 314.7,484.8 330.7,484.8 346.6,484.8 362.5,484.8 378.4,484.8 394.3,484.8 410.2,484.8 426.1,484.8 442.0,484.8 457.9,484.8 473.9,484.8 489.8,484.8 505.7,484.8 521.6,484.8 537.5,484.8 553.4,484.8 569.3,484.8 585.2,484.8 601.1,484.8 617.0,484.8 633.0,484.8 648.9,484.8 664.8,484.8 680.7,484.8 696.6,484.8 712.5,484.8 728.4,484.8 744.3,484.8 760.2,484.8 776.1,484.8 792.1,484.8 808.0,484.8 823.9,484.8 839.8,484.8 855.7,484.8 871.6,484.8 887.5,484.8 903.4,484.8 919.3,484.8 935.3,484.8 951.2,484.8 967.1,484.8 983.0,484.8 998.9,484.8 1014.8,484.8 1030.7,484.8 1046.6,484.8 1062.5,484.8 1078.4,484.8 1094.4,484.8 1110.3,484.8 1126.2,484.8 1142.1,484.8 1158.0,484.8" fill="none" stroke="#16a34a" stroke-width="3" stroke-linejoin="round" stroke-linecap="round"/>
<circle cx="92.0" cy="484.4" r="4" fill="#2563eb"><title>#1 autoresearch-inspired | log_loss=0.884289 | best=0.884289 | status=keep</title></circle>
<circle cx="107.9" cy="481.3" r="4" fill="#2563eb"><title>#2 data-refresh | log_loss=0.885234 | best=0.884289 | status=keep</title></circle>
<circle cx="123.8" cy="484.8" r="4" fill="#16a34a"><title>#3 hgb_iter80_lr0.03_l20 | log_loss=0.884156 | best=0.884156 | status=would_promote</title></circle>
<circle cx="139.7" cy="484.8" r="4" fill="#16a34a"><title>#4 hgb_iter80_lr0.03_l20 | log_loss=0.884156 | best=0.884156 | status=promote</title></circle>
<circle cx="155.6" cy="484.8" r="4" fill="#8aa1b4"><title>#5 hgb_iter80_lr0.03_l20 | log_loss=0.884156 | best=0.884156 | status=reject</title></circle>
<circle cx="171.6" cy="482.7" r="4" fill="#8aa1b4"><title>#6 hgb_iter80_lr0.03_l20.02 | log_loss=0.884811 | best=0.884156 | status=reject</title></circle>
<circle cx="187.5" cy="483.8" r="4" fill="#8aa1b4"><title>#7 hgb_iter80_lr0.03_l20.08 | log_loss=0.884465 | best=0.884156 | status=reject</title></circle>
<circle cx="203.4" cy="484.1" r="4" fill="#8aa1b4"><title>#8 hgb_iter80_lr0.045_l20 | log_loss=0.884397 | best=0.884156 | status=reject</title></circle>
<circle cx="219.3" cy="481.3" r="4" fill="#8aa1b4"><title>#9 hgb_iter80_lr0.045_l20.02 | log_loss=0.885234 | best=0.884156 | status=reject</title></circle>
<circle cx="235.2" cy="483.2" r="4" fill="#8aa1b4"><title>#10 hgb_iter80_lr0.045_l20.08 | log_loss=0.884677 | best=0.884156 | status=reject</title></circle>
<circle cx="251.1" cy="483.9" r="4" fill="#8aa1b4"><title>#11 hgb_iter80_lr0.06_l20 | log_loss=0.884432 | best=0.884156 | status=reject</title></circle>
<circle cx="267.0" cy="483.2" r="4" fill="#8aa1b4"><title>#12 hgb_iter80_lr0.06_l20.02 | log_loss=0.884675 | best=0.884156 | status=reject</title></circle>
<circle cx="282.9" cy="480.6" r="4" fill="#8aa1b4"><title>#13 hgb_iter80_lr0.06_l20.08 | log_loss=0.885475 | best=0.884156 | status=reject</title></circle>
<circle cx="298.8" cy="481.9" r="4" fill="#8aa1b4"><title>#14 hgb_iter80_lr0.08_l20 | log_loss=0.885073 | best=0.884156 | status=reject</title></circle>
<circle cx="314.7" cy="480.6" r="4" fill="#8aa1b4"><title>#15 hgb_iter80_lr0.08_l20.02 | log_loss=0.885456 | best=0.884156 | status=reject</title></circle>
<circle cx="330.7" cy="480.9" r="4" fill="#8aa1b4"><title>#16 hgb_iter80_lr0.08_l20.08 | log_loss=0.885378 | best=0.884156 | status=reject</title></circle>
<circle cx="346.6" cy="483.8" r="4" fill="#8aa1b4"><title>#17 hgb_iter120_lr0.03_l20 | log_loss=0.884481 | best=0.884156 | status=reject</title></circle>
<circle cx="362.5" cy="482.3" r="4" fill="#8aa1b4"><title>#18 hgb_iter120_lr0.03_l20.02 | log_loss=0.884927 | best=0.884156 | status=reject</title></circle>
<circle cx="378.4" cy="483.5" r="4" fill="#8aa1b4"><title>#19 hgb_iter120_lr0.03_l20.08 | log_loss=0.884556 | best=0.884156 | status=reject</title></circle>
<circle cx="394.3" cy="484.1" r="4" fill="#8aa1b4"><title>#20 hgb_iter120_lr0.045_l20 | log_loss=0.884397 | best=0.884156 | status=reject</title></circle>
<circle cx="410.2" cy="481.3" r="4" fill="#8aa1b4"><title>#21 hgb_iter120_lr0.045_l20.02 | log_loss=0.885234 | best=0.884156 | status=reject</title></circle>
<circle cx="426.1" cy="483.2" r="4" fill="#8aa1b4"><title>#22 hgb_iter120_lr0.045_l20.08 | log_loss=0.884677 | best=0.884156 | status=reject</title></circle>
<circle cx="442.0" cy="483.9" r="4" fill="#8aa1b4"><title>#23 hgb_iter120_lr0.06_l20 | log_loss=0.884432 | best=0.884156 | status=reject</title></circle>
<circle cx="457.9" cy="483.2" r="4" fill="#8aa1b4"><title>#24 hgb_iter120_lr0.06_l20.02 | log_loss=0.884675 | best=0.884156 | status=reject</title></circle>
<circle cx="473.9" cy="480.6" r="4" fill="#8aa1b4"><title>#25 hgb_iter120_lr0.06_l20.08 | log_loss=0.885475 | best=0.884156 | status=reject</title></circle>
<circle cx="489.8" cy="481.9" r="4" fill="#8aa1b4"><title>#26 hgb_iter120_lr0.08_l20 | log_loss=0.885073 | best=0.884156 | status=reject</title></circle>
<circle cx="505.7" cy="480.6" r="4" fill="#8aa1b4"><title>#27 hgb_iter120_lr0.08_l20.02 | log_loss=0.885456 | best=0.884156 | status=reject</title></circle>
<circle cx="521.6" cy="480.9" r="4" fill="#8aa1b4"><title>#28 hgb_iter120_lr0.08_l20.08 | log_loss=0.885378 | best=0.884156 | status=reject</title></circle>
<circle cx="537.5" cy="483.8" r="4" fill="#8aa1b4"><title>#29 hgb_iter160_lr0.03_l20 | log_loss=0.884481 | best=0.884156 | status=reject</title></circle>
<circle cx="553.4" cy="482.3" r="4" fill="#8aa1b4"><title>#30 hgb_iter160_lr0.03_l20.02 | log_loss=0.884927 | best=0.884156 | status=reject</title></circle>
<circle cx="569.3" cy="483.5" r="4" fill="#8aa1b4"><title>#31 hgb_iter160_lr0.03_l20.08 | log_loss=0.884556 | best=0.884156 | status=reject</title></circle>
<circle cx="585.2" cy="484.1" r="4" fill="#8aa1b4"><title>#32 hgb_iter160_lr0.045_l20 | log_loss=0.884397 | best=0.884156 | status=reject</title></circle>
<circle cx="601.1" cy="481.3" r="4" fill="#8aa1b4"><title>#33 hgb_iter160_lr0.045_l20.02 | log_loss=0.885234 | best=0.884156 | status=reject</title></circle>
<circle cx="617.0" cy="483.2" r="4" fill="#8aa1b4"><title>#34 hgb_iter160_lr0.045_l20.08 | log_loss=0.884677 | best=0.884156 | status=reject</title></circle>
<circle cx="633.0" cy="483.9" r="4" fill="#8aa1b4"><title>#35 hgb_iter160_lr0.06_l20 | log_loss=0.884432 | best=0.884156 | status=reject</title></circle>
<circle cx="648.9" cy="483.2" r="4" fill="#8aa1b4"><title>#36 hgb_iter160_lr0.06_l20.02 | log_loss=0.884675 | best=0.884156 | status=reject</title></circle>
<circle cx="664.8" cy="480.6" r="4" fill="#8aa1b4"><title>#37 hgb_iter160_lr0.06_l20.08 | log_loss=0.885475 | best=0.884156 | status=reject</title></circle>
<circle cx="680.7" cy="481.9" r="4" fill="#8aa1b4"><title>#38 hgb_iter160_lr0.08_l20 | log_loss=0.885073 | best=0.884156 | status=reject</title></circle>
<circle cx="696.6" cy="480.6" r="4" fill="#8aa1b4"><title>#39 hgb_iter160_lr0.08_l20.02 | log_loss=0.885456 | best=0.884156 | status=reject</title></circle>
<circle cx="712.5" cy="480.9" r="4" fill="#8aa1b4"><title>#40 hgb_iter160_lr0.08_l20.08 | log_loss=0.885378 | best=0.884156 | status=reject</title></circle>
<circle cx="728.4" cy="483.8" r="4" fill="#8aa1b4"><title>#41 hgb_iter220_lr0.03_l20 | log_loss=0.884481 | best=0.884156 | status=reject</title></circle>
<circle cx="744.3" cy="482.3" r="4" fill="#8aa1b4"><title>#42 hgb_iter220_lr0.03_l20.02 | log_loss=0.884927 | best=0.884156 | status=reject</title></circle>
<circle cx="760.2" cy="483.5" r="4" fill="#8aa1b4"><title>#43 hgb_iter220_lr0.03_l20.08 | log_loss=0.884556 | best=0.884156 | status=reject</title></circle>
<circle cx="776.1" cy="484.1" r="4" fill="#8aa1b4"><title>#44 hgb_iter220_lr0.045_l20 | log_loss=0.884397 | best=0.884156 | status=reject</title></circle>
<circle cx="792.1" cy="481.3" r="4" fill="#8aa1b4"><title>#45 hgb_iter220_lr0.045_l20.02 | log_loss=0.885234 | best=0.884156 | status=reject</title></circle>
<circle cx="808.0" cy="483.2" r="4" fill="#8aa1b4"><title>#46 hgb_iter220_lr0.045_l20.08 | log_loss=0.884677 | best=0.884156 | status=reject</title></circle>
<circle cx="823.9" cy="483.9" r="4" fill="#8aa1b4"><title>#47 hgb_iter220_lr0.06_l20 | log_loss=0.884432 | best=0.884156 | status=reject</title></circle>
<circle cx="839.8" cy="483.2" r="4" fill="#8aa1b4"><title>#48 hgb_iter220_lr0.06_l20.02 | log_loss=0.884675 | best=0.884156 | status=reject</title></circle>
<circle cx="855.7" cy="480.6" r="4" fill="#8aa1b4"><title>#49 hgb_iter220_lr0.06_l20.08 | log_loss=0.885475 | best=0.884156 | status=reject</title></circle>
<circle cx="871.6" cy="481.9" r="4" fill="#8aa1b4"><title>#50 hgb_iter220_lr0.08_l20 | log_loss=0.885073 | best=0.884156 | status=reject</title></circle>
<circle cx="887.5" cy="480.6" r="4" fill="#8aa1b4"><title>#51 hgb_iter220_lr0.08_l20.02 | log_loss=0.885456 | best=0.884156 | status=reject</title></circle>
<circle cx="903.4" cy="480.9" r="4" fill="#8aa1b4"><title>#52 hgb_iter220_lr0.08_l20.08 | log_loss=0.885378 | best=0.884156 | status=reject</title></circle>
<circle cx="919.3" cy="483.8" r="4" fill="#8aa1b4"><title>#53 hgb_iter300_lr0.03_l20 | log_loss=0.884481 | best=0.884156 | status=reject</title></circle>
<circle cx="935.3" cy="482.3" r="4" fill="#8aa1b4"><title>#54 hgb_iter300_lr0.03_l20.02 | log_loss=0.884927 | best=0.884156 | status=reject</title></circle>
<circle cx="951.2" cy="483.5" r="4" fill="#8aa1b4"><title>#55 hgb_iter300_lr0.03_l20.08 | log_loss=0.884556 | best=0.884156 | status=reject</title></circle>
<circle cx="967.1" cy="484.1" r="4" fill="#8aa1b4"><title>#56 hgb_iter300_lr0.045_l20 | log_loss=0.884397 | best=0.884156 | status=reject</title></circle>
<circle cx="983.0" cy="481.3" r="4" fill="#8aa1b4"><title>#57 hgb_iter300_lr0.045_l20.02 | log_loss=0.885234 | best=0.884156 | status=reject</title></circle>
<circle cx="998.9" cy="483.2" r="4" fill="#8aa1b4"><title>#58 hgb_iter300_lr0.045_l20.08 | log_loss=0.884677 | best=0.884156 | status=reject</title></circle>
<circle cx="1014.8" cy="483.9" r="4" fill="#8aa1b4"><title>#59 hgb_iter300_lr0.06_l20 | log_loss=0.884432 | best=0.884156 | status=reject</title></circle>
<circle cx="1030.7" cy="483.2" r="4" fill="#8aa1b4"><title>#60 hgb_iter300_lr0.06_l20.02 | log_loss=0.884675 | best=0.884156 | status=reject</title></circle>
<circle cx="1046.6" cy="480.6" r="4" fill="#8aa1b4"><title>#61 hgb_iter300_lr0.06_l20.08 | log_loss=0.885475 | best=0.884156 | status=reject</title></circle>
<circle cx="1062.5" cy="481.9" r="4" fill="#8aa1b4"><title>#62 hgb_iter300_lr0.08_l20 | log_loss=0.885073 | best=0.884156 | status=reject</title></circle>
<circle cx="1078.4" cy="480.6" r="4" fill="#8aa1b4"><title>#63 hgb_iter300_lr0.08_l20.02 | log_loss=0.885456 | best=0.884156 | status=reject</title></circle>
<circle cx="1094.4" cy="480.9" r="4" fill="#8aa1b4"><title>#64 hgb_iter300_lr0.08_l20.08 | log_loss=0.885378 | best=0.884156 | status=reject</title></circle>
<circle cx="1110.3" cy="125.2" r="4" fill="#8aa1b4"><title>#65 extra_trees_200_depth4 | log_loss=0.995180 | best=0.884156 | status=reject</title></circle>
<circle cx="1126.2" cy="130.4" r="4" fill="#8aa1b4"><title>#66 extra_trees_400_depth4 | log_loss=0.993578 | best=0.884156 | status=reject</title></circle>
<circle cx="1142.1" cy="222.8" r="4" fill="#8aa1b4"><title>#67 extra_trees_200_depth6 | log_loss=0.965030 | best=0.884156 | status=reject</title></circle>
<circle cx="1158.0" cy="224.8" r="4" fill="#8aa1b4"><title>#68 extra_trees_400_depth6 | log_loss=0.964428 | best=0.884156 | status=reject</title></circle>
<rect x="92" y="548" width="18" height="4" fill="#8aa1b4"/>
<text x="120" y="554" font-family="Arial, sans-serif" font-size="12" fill="#374151">run log loss</text>
<rect x="242" y="548" width="18" height="4" fill="#16a34a"/>
<text x="270" y="554" font-family="Arial, sans-serif" font-size="12" fill="#374151">cumulative best</text>
<text x="1158" y="554" text-anchor="end" font-family="Arial, sans-serif" font-size="12" fill="#166534">Best so far: 0.884156 (hgb_iter80_lr0.03_l20)</text>
</svg>